<?xml version="1.0" encoding="UTF-8" standalone="no"?>
<!-- Created with Inkscape (http://www.inkscape.org/) -->

<svg
   width="71mm"
   height="43mm"
   viewBox="0 0 71 42.999998"
   version="1.1"
   id="svg1"
   xml:space="preserve"
   inkscape:version="1.4.2 (ebf0e940d0, 2025-05-08)"
   sodipodi:docname="GNDLIslandLogoWhite.svg"
   inkscape:export-filename="GNDLIslandLogo.png"
   inkscape:export-xdpi="96"
   inkscape:export-ydpi="96"
   xmlns:inkscape="http://www.inkscape.org/namespaces/inkscape"
   xmlns:sodipodi="http://sodipodi.sourceforge.net/DTD/sodipodi-0.dtd"
   xmlns="http://www.w3.org/2000/svg"
   xmlns:svg="http://www.w3.org/2000/svg"><sodipodi:namedview
     id="namedview1"
     pagecolor="#ffffff"
     bordercolor="#000000"
     borderopacity="0.25"
     inkscape:showpageshadow="2"
     inkscape:pageopacity="0.0"
     inkscape:pagecheckerboard="0"
     inkscape:deskcolor="#d1d1d1"
     inkscape:document-units="mm"
     inkscape:zoom="5.6568543"
     inkscape:cx="122.32947"
     inkscape:cy="56.568542"
     inkscape:window-width="2830"
     inkscape:window-height="1561"
     inkscape:window-x="1592"
     inkscape:window-y="233"
     inkscape:window-maximized="0"
     inkscape:current-layer="svg1" /><defs
     id="defs1" /><g
     inkscape:groupmode="layer"
     id="layer2"
     inkscape:label="Layer 2"
     transform="rotate(-18.562773,173.17425,134.99622)" /><g
     inkscape:label="Layer 1"
     inkscape:groupmode="layer"
     id="layer1"><g
       id="g50"><g
         id="g51" /></g></g><g
     id="g52"
     transform="translate(-56.35625,-33.072917)"
     style="fill:#ffffff;fill-opacity:1"><path
       d="m 60.073848,39.942173 h 0.812801 v -2.370669 h -1.162757 v -0.993423 h 2.223913 v 4.357515 h -1.73849 q -1.817513,0 -2.856092,-1.027289 -1.02729,-1.038579 -1.038579,-2.923826 0.01129,-1.885246 1.038579,-2.912536 1.038579,-1.038579 2.856092,-1.038579 h 1.298223 v 0.993423 h -1.43369 q -1.253068,0 -1.930402,0.835379 -0.666045,0.82409 -0.688623,2.122313 0.02258,1.298224 0.688623,2.133603 0.677334,0.824089 1.930402,0.824089 z"
       id="text39"
       style="font-size:11.2889px;font-family:Baumans;-inkscape-font-specification:'Baumans, Normal';stroke-width:0.264583;fill:#ffffff;fill-opacity:1"
       aria-label="G" /><path
       d="m 63.076692,40.935596 v -3.081869 q 0,-1.298224 0.485422,-1.794935 0.237067,-0.248356 0.575734,-0.372534 0.338667,-0.124178 0.587023,-0.146756 0.259645,-0.02258 0.699912,-0.02258 h 0.993423 v 0.948268 h -1.196623 q -0.225778,0 -0.349956,0.01129 -0.124178,0.01129 -0.293511,0.07902 -0.169334,0.06773 -0.293512,0.214489 -0.214489,0.270934 -0.214489,1.083735 v 3.081869 z"
       id="text38"
       style="font-size:11.2889px;font-family:Baumans;-inkscape-font-specification:'Baumans, Normal';stroke-width:0.264583;fill:#ffffff;fill-opacity:1"
       aria-label="r" /><path
       d="m 69.804881,35.404035 q 1.919113,0.07902 1.919113,1.591735 0,1.885247 -2.472269,1.885247 H 68.78888 v -0.869246 h 0.541867 q 0.756356,0 1.049868,-0.225778 0.293511,-0.237067 0.293511,-0.778934 0,-0.349956 -0.259645,-0.519289 -0.259644,-0.180623 -0.666045,-0.180623 -0.801512,0 -1.264357,0.564445 -0.451556,0.564445 -0.451556,1.354668 0,0.835379 0.485423,1.354668 0.496712,0.51929 1.286935,0.51929 0.7112,0 1.162757,-0.349956 l 0.677334,0.666045 q -0.778935,0.632178 -1.840091,0.632178 -1.286935,0 -2.05458,-0.756356 -0.767645,-0.756356 -0.767645,-1.95298 0,-1.33209 0.756356,-2.15618 0.756356,-0.824089 2.065869,-0.778934 z"
       id="text37"
       style="font-size:11.2889px;font-family:Baumans;-inkscape-font-specification:'Baumans, Normal';stroke-width:0.264583;fill:#ffffff;fill-opacity:1"
       aria-label="e" /><path
       d="m 75.867,37.752127 v 1.016001 q -0.428978,-0.327379 -1.049868,-0.327379 -0.530578,0 -0.82409,0.21449 -0.293511,0.2032 -0.293511,0.587022 0,0.745068 1.106312,0.745068 h 1.490135 v -2.15618 q 0,-1.365957 -1.33209,-1.365957 h -1.806224 v -0.948268 h 1.862668 q 1.095024,0 1.682047,0.541868 0.587022,0.541867 0.587022,1.557868 v 3.318936 h -2.517424 q -0.959557,0 -1.524002,-0.428978 -0.564445,-0.428978 -0.564445,-1.253068 0,-0.824089 0.598312,-1.253068 0.598311,-0.428978 1.501423,-0.428978 0.508001,0 1.083735,0.180623 z"
       id="text36"
       style="font-size:11.2889px;font-family:Baumans;-inkscape-font-specification:'Baumans, Normal';stroke-width:0.264583;fill:#ffffff;fill-opacity:1"
       aria-label="a" /><path
       d="m 77.96674,36.465192 2.020713,-2.020713 v 1.072445 h 1.524002 v 0.948268 h -1.524002 v 2.325513 q 0,0.395112 0.124178,0.654757 0.135467,0.259644 0.383823,0.372533 0.248356,0.1016 0.462845,0.135467 0.225778,0.03387 0.553156,0.03387 v 0.948267 q -1.298224,0 -1.919113,-0.496711 -0.62089,-0.496712 -0.62089,-1.64818 v -2.325513 z"
       id="text35"
       style="font-size:11.2889px;font-family:Baumans;-inkscape-font-specification:'Baumans, Normal';stroke-width:0.264583;fill:#ffffff;fill-opacity:1"
       aria-label="t" /><path
       d="m 92.924513,36.228125 q 0.790223,-0.82409 1.975557,-0.82409 0.575734,0 1.072446,0.225778 0.508001,0.214489 0.880534,0.598312 0.383823,0.383823 0.598312,0.903112 0.214489,0.508001 0.214489,1.095023 0,0.587023 -0.214489,1.106313 -0.2032,0.508 -0.575734,0.891823 -0.372534,0.383822 -0.880534,0.6096 -0.508001,0.214489 -1.095024,0.214489 -0.598311,0 -1.106312,-0.214489 -0.496711,-0.225778 -0.869245,-0.6096 -0.372534,-0.383823 -0.587023,-0.891823 -0.2032,-0.51929 -0.2032,-1.106313 0,-1.196623 0.790223,-1.998135 z m 1.975557,0.124178 q -0.790223,0 -1.275645,0.519289 -0.474134,0.51929 -0.474134,1.354668 0,0.835379 0.474134,1.354668 0.485422,0.51929 1.275645,0.51929 0.801512,0 1.275646,-0.51929 0.474134,-0.530578 0.474134,-1.354668 0,-0.824089 -0.474134,-1.343379 -0.474134,-0.530578 -1.275646,-0.530578 z"
       id="text33"
       style="font-size:11.2889px;font-family:Baumans;-inkscape-font-specification:'Baumans, Normal';stroke-width:0.264583;fill:#ffffff;fill-opacity:1"
       aria-label="o" /><path
       d="m 98.681844,40.935596 v -3.081869 q 0,-1.298224 0.485423,-1.794935 0.237067,-0.248356 0.575734,-0.372534 0.338669,-0.124178 0.587019,-0.146756 0.25965,-0.02258 0.69992,-0.02258 h 0.99342 v 0.948268 h -1.19663 q -0.22577,0 -0.34995,0.01129 -0.12418,0.01129 -0.29351,0.07902 -0.16934,0.06773 -0.293514,0.214489 -0.214489,0.270934 -0.214489,1.083735 v 3.081869 z"
       id="text32"
       style="font-size:11.2889px;font-family:Baumans;-inkscape-font-specification:'Baumans, Normal';stroke-width:0.264583;fill:#ffffff;fill-opacity:1"
       aria-label="r" /><path
       d="m 102.19269,36.465192 2.02072,-2.020713 v 1.072445 h 1.524 v 0.948268 h -1.524 v 2.325513 q 0,0.395112 0.12417,0.654757 0.13547,0.259644 0.38383,0.372533 0.24835,0.1016 0.46284,0.135467 0.22578,0.03387 0.55316,0.03387 v 0.948267 q -1.29823,0 -1.91912,-0.496711 -0.62089,-0.496712 -0.62089,-1.64818 v -2.325513 z"
       id="text31"
       style="font-size:11.2889px;font-family:Baumans;-inkscape-font-specification:'Baumans, Normal';stroke-width:0.264583;fill:#ffffff;fill-opacity:1"
       aria-label="t" /><path
       d="m 107.80326,33.033366 v 2.483558 h 0.95956 q 1.25307,0 1.79494,0.372534 0.48542,0.327378 0.6096,0.790223 0.13546,0.451556 0.13546,1.196623 v 3.059292 h -0.99342 v -3.048003 q 0,-0.2032 -0.0113,-0.338667 -0.0113,-0.146755 -0.079,-0.361244 -0.0677,-0.225778 -0.19191,-0.361245 -0.12418,-0.146756 -0.36125,-0.248356 -0.23706,-0.112889 -0.57573,-0.112889 h -1.28694 v 4.470404 h -0.99342 v -7.90223 z"
       id="text30"
       style="font-size:11.2889px;font-family:Baumans;-inkscape-font-specification:'Baumans, Normal';stroke-width:0.264583;fill:#ffffff;fill-opacity:1"
       aria-label="h" /><path
       d="m 115.31037,35.404035 q 1.91911,0.07902 1.91911,1.591735 0,1.885247 -2.47227,1.885247 h -0.46284 v -0.869246 h 0.54186 q 0.75636,0 1.04987,-0.225778 0.29351,-0.237067 0.29351,-0.778934 0,-0.349956 -0.25964,-0.519289 -0.25965,-0.180623 -0.66605,-0.180623 -0.80151,0 -1.26436,0.564445 -0.45155,0.564445 -0.45155,1.354668 0,0.835379 0.48542,1.354668 0.49671,0.51929 1.28694,0.51929 0.7112,0 1.16275,-0.349956 l 0.67734,0.666045 q -0.77894,0.632178 -1.84009,0.632178 -1.28694,0 -2.05458,-0.756356 -0.76765,-0.756356 -0.76765,-1.95298 0,-1.33209 0.75636,-2.15618 0.75635,-0.824089 2.06587,-0.778934 z"
       id="text29"
       style="font-size:11.2889px;font-family:Baumans;-inkscape-font-specification:'Baumans, Normal';stroke-width:0.264583;fill:#ffffff;fill-opacity:1"
       aria-label="e" /><path
       d="m 118.18903,40.935596 v -3.081869 q 0,-1.298224 0.48542,-1.794935 0.23707,-0.248356 0.57574,-0.372534 0.33866,-0.124178 0.58702,-0.146756 0.25964,-0.02258 0.69991,-0.02258 h 0.99343 v 0.948268 h -1.19663 q -0.22578,0 -0.34995,0.01129 -0.12418,0.01129 -0.29352,0.07902 -0.16933,0.06773 -0.29351,0.214489 -0.21449,0.270934 -0.21449,1.083735 v 3.081869 z"
       id="text28"
       style="font-size:11.2889px;font-family:Baumans;-inkscape-font-specification:'Baumans, Normal';stroke-width:0.264583;fill:#ffffff;fill-opacity:1"
       aria-label="r" /><path
       d="m 122.32077,35.516924 h 1.95298 q 1.25307,0 1.79493,0.372534 0.48543,0.327378 0.6096,0.790223 0.13547,0.451556 0.13547,1.196623 v 3.059292 h -0.99342 v -3.048003 q 0,-0.2032 -0.0113,-0.338667 -0.0113,-0.146755 -0.079,-0.361244 -0.0677,-0.225778 -0.19191,-0.361245 -0.12418,-0.146756 -0.36125,-0.248356 -0.23707,-0.112889 -0.57573,-0.112889 h -1.28694 v 4.470404 h -0.99342 z"
       id="text27"
       style="font-size:11.2889px;font-family:Baumans;-inkscape-font-specification:'Baumans, Normal';stroke-width:0.264583;fill:#ffffff;fill-opacity:1"
       aria-label="n" /><path
       d="m 61.744602,45.74662 q -0.01129,1.885246 -1.049868,2.923825 -1.02729,1.02729 -2.844803,1.02729 h -1.53529 v -7.90223 h 1.53529 q 1.817513,0 2.844803,1.038578 1.038579,1.02729 1.049868,2.912537 z m -3.759204,2.957692 q 1.253068,0 1.919113,-0.82409 0.677334,-0.835379 0.699912,-2.133602 -0.02258,-1.298224 -0.699912,-2.122314 -0.666045,-0.835378 -1.919113,-0.835378 h -0.6096 v 5.915384 z"
       id="text46"
       style="font-size:11.2889px;font-family:Baumans;-inkscape-font-specification:'Baumans, Normal';stroke-width:0.264583;fill:#ffffff;fill-opacity:1"
       aria-label="D" /><path
       d="M 64.566827,49.697735 H 63.573404 V 45.22733 h -0.92569 l 0.451556,-0.948267 h 1.467557 z m -1.038579,-6.547562 q -0.146755,-0.191912 -0.146755,-0.41769 0,-0.225778 0.146755,-0.4064 0.146756,-0.191911 0.451556,-0.191911 0.304801,0 0.451556,0.191911 0.146756,0.180622 0.146756,0.4064 0,0.225778 -0.146756,0.41769 -0.146755,0.180622 -0.451556,0.180622 -0.3048,0 -0.451556,-0.180622 z"
       id="text45"
       style="font-size:11.2889px;font-family:Baumans;-inkscape-font-specification:'Baumans, Normal';stroke-width:0.264583;fill:#ffffff;fill-opacity:1"
       aria-label="i" /><path
       d="m 68.596965,49.697735 q -1.106312,0 -1.896535,-0.745068 -0.790223,-0.745067 -0.790223,-1.907824 0,-1.174045 0.790223,-1.964268 0.801512,-0.801512 1.975558,-0.801512 h 2.652891 v 5.260627 q 0,0.508001 -0.135467,0.914401 -0.124178,0.406401 -0.361244,0.688623 -0.237067,0.282223 -0.428979,0.440267 -0.191911,0.158045 -0.462845,0.327378 -0.699911,0.361245 -1.704624,0.361245 h -1.264356 v -0.948268 h 1.162756 q 0.993424,0 1.411113,-0.248355 0.767645,-0.428979 0.767645,-1.422402 V 45.22733 h -1.63689 q -0.801512,0 -1.275646,0.496712 -0.474134,0.496712 -0.474134,1.320801 0,0.790223 0.485423,1.253068 0.496711,0.451556 1.185334,0.451556 0.745068,0 1.309513,-0.4064 v 1.016001 q -0.609601,0.338667 -1.309513,0.338667 z"
       id="text44"
       style="font-size:11.2889px;font-family:Baumans;-inkscape-font-specification:'Baumans, Normal';stroke-width:0.264583;fill:#ffffff;fill-opacity:1"
       aria-label="g" /><path
       d="M 74.207551,49.697735 H 73.214128 V 45.22733 h -0.92569 l 0.451556,-0.948267 h 1.467557 z m -1.038579,-6.547562 q -0.146755,-0.191912 -0.146755,-0.41769 0,-0.225778 0.146755,-0.4064 0.146756,-0.191911 0.451556,-0.191911 0.304801,0 0.451556,0.191911 0.146756,0.180622 0.146756,0.4064 0,0.225778 -0.146756,0.41769 -0.146755,0.180622 -0.451556,0.180622 -0.3048,0 -0.451556,-0.180622 z"
       id="text43"
       style="font-size:11.2889px;font-family:Baumans;-inkscape-font-specification:'Baumans, Normal';stroke-width:0.264583;fill:#ffffff;fill-opacity:1"
       aria-label="i" /><path
       d="m 75.15582,45.22733 2.020713,-2.020713 v 1.072446 h 1.524001 v 0.948267 h -1.524001 v 2.325514 q 0,0.395111 0.124178,0.654756 0.135466,0.259645 0.383822,0.372534 0.248356,0.1016 0.462845,0.135467 0.225778,0.03387 0.553156,0.03387 v 0.948268 q -1.298223,0 -1.919113,-0.496712 -0.620889,-0.496711 -0.620889,-1.648179 V 45.22733 Z"
       id="text42"
       style="font-size:11.2889px;font-family:Baumans;-inkscape-font-specification:'Baumans, Normal';stroke-width:0.264583;fill:#ffffff;fill-opacity:1"
       aria-label="t" /><path
       d="m 82.787105,46.514265 v 1.016001 q -0.428978,-0.327378 -1.049868,-0.327378 -0.530578,0 -0.82409,0.214489 -0.293511,0.2032 -0.293511,0.587023 0,0.745067 1.106312,0.745067 h 1.490135 v -2.15618 q 0,-1.365957 -1.33209,-1.365957 h -1.806224 v -0.948267 h 1.862668 q 1.095024,0 1.682047,0.541867 0.587022,0.541867 0.587022,1.557868 v 3.318937 h -2.517424 q -0.959557,0 -1.524002,-0.428978 -0.564445,-0.428979 -0.564445,-1.253068 0,-0.82409 0.598312,-1.253068 0.598311,-0.428978 1.501423,-0.428978 0.508001,0 1.083735,0.180622 z"
       id="text41"
       style="font-size:11.2889px;font-family:Baumans;-inkscape-font-specification:'Baumans, Normal';stroke-width:0.264583;fill:#ffffff;fill-opacity:1"
       aria-label="a" /><path
       d="m 98.10715,46.514265 v 1.016001 q -0.428978,-0.327378 -1.049867,-0.327378 -0.530579,0 -0.82409,0.214489 -0.293512,0.2032 -0.293512,0.587023 0,0.745067 1.106313,0.745067 h 1.490135 v -2.15618 q 0,-1.365957 -1.332091,-1.365957 h -1.806224 v -0.948267 h 1.862669 q 1.095023,0 1.682046,0.541867 0.587023,0.541867 0.587023,1.557868 v 3.318937 h -2.517425 q -0.959557,0 -1.524002,-0.428978 -0.564445,-0.428979 -0.564445,-1.253068 0,-0.82409 0.598312,-1.253068 0.598312,-0.428978 1.501424,-0.428978 0.508,0 1.083734,0.180622 z"
       id="text49"
       style="font-size:11.2889px;font-family:Baumans;-inkscape-font-specification:'Baumans, Normal';stroke-width:0.264583;fill:#ffffff;fill-opacity:1"
       aria-label="a" /><path
       d="m 100.77134,41.795505 h 1.016 v 5.192894 q 0,0.891823 0.45155,1.388534 0.46285,0.485423 1.26436,0.485423 0.83538,0 1.30951,-0.474134 0.47414,-0.485422 0.47414,-1.399823 0,-0.869246 -0.51929,-1.365957 -0.508,-0.508001 -1.34338,-0.508001 -0.7112,0 -1.23049,0.406401 v -1.016001 q 0.62089,-0.338667 1.34338,-0.338667 1.19662,0 1.97555,0.778934 0.79023,0.767645 0.79023,2.043291 0,1.343379 -0.82409,2.088446 -0.8128,0.733779 -2.05458,0.733779 -1.18534,0 -1.91912,-0.767645 -0.73377,-0.767646 -0.73377,-2.05458 z"
       id="text48"
       style="font-size:11.2889px;font-family:Baumans;-inkscape-font-specification:'Baumans, Normal';stroke-width:0.264583;fill:#ffffff;fill-opacity:1"
       aria-label="b" /><path
       d="m 111.24743,44.279063 v 0.948267 h -1.99814 q -0.32738,0 -0.56444,0.124178 -0.23707,0.124178 -0.23707,0.349956 0,0.135467 0.0565,0.248356 0.0564,0.1016 0.12417,0.169333 0.079,0.06773 0.22578,0.146756 0.15805,0.06773 0.23707,0.1016 0.0903,0.02258 0.72249,0.225778 0.63218,0.2032 0.93698,0.338667 0.3048,0.135467 0.46284,0.372534 0.16933,0.225778 0.21449,0.451556 0.0452,0.214489 0.0452,0.428978 0,1.512713 -2.07716,1.512713 h -1.95298 v -0.948268 h 1.95298 q 1.06116,0 1.06116,-0.564445 0,-0.270933 -0.31609,-0.451556 -0.3048,-0.180622 -0.75636,-0.3048 -0.44027,-0.124178 -0.89182,-0.282223 -0.44027,-0.169333 -0.75636,-0.530578 -0.3048,-0.372534 -0.3048,-0.914401 0,-0.688623 0.53058,-1.049868 0.53058,-0.372533 1.28693,-0.372533 z"
       id="text47"
       style="font-size:11.2889px;font-family:Baumans;-inkscape-font-specification:'Baumans, Normal';stroke-width:0.264583;fill:#ffffff;fill-opacity:1"
       aria-label="s" /><path
       style="baseline-shift:baseline;display:inline;overflow:visible;opacity:1;vector-effect:none;enable-background:accumulate;stop-color:#000000;stop-opacity:1;fill:#ffffff;fill-opacity:1"
       d="m 94.904303,50.32031 c 0.523898,0.407351 1.209178,0.954973 1.929687,1.494141 0.720509,0.539168 1.47433,1.071245 2.166016,1.457031 0.691686,0.385787 1.290234,0.705077 1.962894,0.529297 0.66838,-0.17466 1.04214,-0.652825 1.36328,-0.998047 0.32115,-0.345221 0.57504,-0.592059 1.06641,-0.6875 1.1464,-0.22267 2.5837,-0.483425 3.79883,-0.457031 0.60756,0.0132 1.15497,0.0996 1.57226,0.271484 0.4173,0.171885 0.70049,0.406504 0.88086,0.771485 0.0331,0.06701 0.0368,0.09249 -0.0625,0.269531 -0.0993,0.177042 -0.31126,0.423621 -0.55859,0.685547 -0.24734,0.261926 -0.52714,0.542494 -0.75977,0.861328 -0.23263,0.318835 -0.44033,0.698973 -0.41601,1.160156 0.0352,0.66851 0.14699,1.453773 0.45117,2.169922 0.30418,0.71615 0.83727,1.391117 1.67969,1.648438 0.57258,0.174895 1.09714,-0.07425 1.52929,-0.367188 0.43215,-0.292933 0.82494,-0.672852 1.17188,-1.003906 0.20042,-0.191248 0.30352,-0.26371 0.45312,-0.388672 -0.0111,0.25299 0.007,0.505696 -0.12109,0.761719 -0.19184,0.382114 -0.51956,0.802142 -0.90234,1.296875 -0.76558,0.989466 -1.73423,2.296667 -2.05665,4.363281 -0.0564,0.361426 0.0247,0.672235 0.12696,1.042969 0.10227,0.370733 0.24801,0.7663 0.4082,1.11914 0.1602,0.352841 0.31062,0.650145 0.53906,0.890625 0.11423,0.120241 0.277,0.307039 0.62891,0.261719 0.17595,-0.02266 0.33905,-0.139242 0.42187,-0.248047 0.0828,-0.108805 0.11561,-0.208954 0.14063,-0.304687 0.79847,-3.05524 1.25993,-3.918757 1.26367,-3.925781 0.0161,-0.02473 0.30648,-0.472634 0.66211,-0.847657 0.10491,-0.110632 0.18751,-0.156412 0.2832,-0.230468 -0.0168,0.0599 -0.0197,0.08798 -0.041,0.15625 -0.1381,0.443231 -0.35787,1.045669 -0.55078,1.691406 -0.19292,0.645737 -0.36361,1.336323 -0.38867,2.003906 -0.0251,0.667583 0.10052,1.355365 0.59179,1.853516 0.11313,0.114709 0.30583,0.211936 0.49219,0.21289 0.18636,9.55e-4 0.33106,-0.068 0.43555,-0.138672 0.20896,-0.141336 0.32642,-0.309695 0.45312,-0.5 0.25341,-0.380608 0.49076,-0.871905 0.7168,-1.341796 0.0275,-0.05708 0.0432,-0.08054 0.0703,-0.136719 0.32671,2.418825 0.33776,5.040405 -0.74023,7.578125 -0.0684,0.160907 -0.109,0.181469 -0.21875,0.224609 -0.10976,0.04314 -0.30703,0.06769 -0.5586,0.08203 -0.25157,0.01434 -0.55412,0.02141 -0.88086,0.109375 -0.22685,0.06108 -0.44403,0.252623 -0.6582,0.427735 -0.0386,-0.178619 -0.0761,-0.290129 -0.10352,-0.609375 -0.0876,-1.019269 -0.0952,-2.467889 -0.30859,-3.507813 -0.0104,-0.05075 -0.0228,-0.126324 -0.10742,-0.232422 -0.0211,-0.02652 -0.0796,-0.0797 -0.0801,-0.08008 -4.7e-4,-3.8e-4 -0.11277,-0.07008 -0.11328,-0.07031 -10e-4,-4.73e-4 -0.26441,-0.04893 -0.26563,-0.04883 -6e-4,4.9e-5 -0.0747,0.01252 -0.10546,0.02148 -0.0308,0.009 -0.0576,0.01869 -0.0801,0.0293 -0.045,0.02122 -0.0755,0.04202 -0.0996,0.06055 -0.0483,0.03704 -0.0724,0.06504 -0.0918,0.08789 -0.0776,0.09142 -0.0924,0.134251 -0.125,0.195313 -0.0653,0.122123 -0.13761,0.27803 -0.22851,0.470703 -0.18182,0.385346 -0.42836,0.905501 -0.70704,1.400391 -0.27867,0.494889 -0.59869,0.963447 -0.86718,1.216797 -0.13425,0.126675 -0.25149,0.193113 -0.31055,0.210937 -0.0591,0.01782 -0.0493,0.01944 -0.0996,-0.0098 -0.0508,-0.02944 -0.0571,-0.03788 -0.0762,-0.08789 -0.019,-0.05001 -0.0358,-0.151909 -0.0254,-0.300781 0.0209,-0.297744 0.15182,-0.756814 0.32812,-1.265625 0.35261,-1.017624 0.89771,-2.221085 0.81836,-3.365235 -0.0452,-0.651434 -0.2173,-1.473837 -0.49609,-2.189453 -0.1394,-0.357808 -0.30258,-0.687173 -0.52149,-0.962891 -0.2189,-0.275717 -0.52638,-0.533005 -0.94335,-0.548828 -0.27038,-0.01026 -0.49235,0.120794 -0.64258,0.25586 -0.15023,0.135065 -0.25946,0.289368 -0.36524,0.460937 -0.21156,0.343138 -0.39887,0.762628 -0.59375,1.214844 -0.38975,0.904432 -0.82302,1.940408 -1.23828,2.453125 -1.64854,2.03545 -5.64161,5.155067 -6.195315,5.585937 -0.101257,-0.08543 -0.165658,-0.101452 -0.246094,-0.248046 -0.07837,-0.142831 -0.117895,-0.284478 -0.08594,-0.478516 0.03196,-0.194038 0.147366,-0.463391 0.480469,-0.814453 0.58391,-0.615397 2.08288,-1.919471 3.15625,-3.023438 0.53668,-0.551983 0.96978,-1.017256 1.1875,-1.509765 0.0544,-0.123128 0.10029,-0.255078 0.10156,-0.425782 10e-4,-0.170703 -0.0746,-0.397522 -0.22852,-0.539062 -0.30793,-0.28308 -0.62395,-0.238227 -0.95898,-0.1875 -4.17129,0.631566 -9.604749,1.384815 -14.287107,1.917969 -2.341178,0.266577 -4.495488,0.478423 -6.205078,0.591797 -1.709589,0.113373 -3.02384,0.107669 -3.46875,0.01563 -0.474329,-0.09813 -0.694593,-0.262221 -0.816406,-0.431641 -0.121813,-0.16942 -0.170851,-0.388904 -0.146484,-0.685547 0.04873,-0.593285 0.444547,-1.40075 0.791015,-1.914062 0.607799,-0.900487 1.4088,-1.596709 2.242213,-2.151959 0.706809,-0.612121 1.373923,-1.557423 1.901575,-2.341708 0.148352,-0.34054 0.759474,-1.289546 0.908947,-1.838365 0.298945,-1.097637 0.669025,-2.512669 1.03125,-3.953125 0.362225,-1.440455 0.715886,-2.906733 0.980468,-4.113281 0.264583,-1.206548 0.44667,-2.082453 0.43921,-2.653752 l -0.03119,-2.186194 0.03383,-6.597011 0.0028,-6.928774 h 1.738912 c 0.511763,0 0.921852,0.116545 1.230415,0.349849 0.316089,0.225778 0.473873,0.594628 0.473873,1.106392 l 2.74e-4,5.475745 2.75e-4,6.060502 c 0,0.481659 0.04124,0.902761 0.124023,1.264006 0.08279,0.353719 0.263627,0.658791 0.542086,0.914672 0.180623,0.158045 0.402701,0.278433 0.666109,0.361219 0.263407,0.07526 0.481644,0.120339 0.654741,0.135392 0.180622,0.0075 0.425242,0.01137 0.733805,0.01137 l 1.667184,0.0029 c 0.278263,0.188586 0.422703,0.407755 0.684652,0.61143 z m -2.633989,-1.60752 c -0.624653,0 -1.034742,-0.229765 -1.230416,-0.688847 -0.09784,-0.248356 -0.146761,-0.590824 -0.146761,-1.027328 l -2.75e-4,-6.037765 -2.19e-4,-5.328983 c 0,-0.895586 -0.229765,-1.550296 -0.688847,-1.964222 -0.459082,-0.421453 -1.155028,-0.632519 -2.088244,-0.632519 h -2.788461 l 1.6e-5,7.914762 0.0083,6.604765 0.0018,2.183991 c 0.0054,0.254308 -0.158495,1.241986 -0.419288,2.431253 -0.260793,1.189267 -0.612146,2.648394 -0.972657,4.082031 -0.36051,1.433637 -0.73061,2.842124 -1.027343,3.931641 -0.486512,1.427895 -1.552506,2.464642 -2.56597,3.537597 -0.678659,0.713166 -1.597013,1.379803 -2.342233,2.483887 -0.40901,0.605972 -0.892381,1.486297 -0.96875,2.416016 -0.03818,0.464859 0.04035,0.965512 0.341796,1.384765 0.301444,0.419253 0.801534,0.712449 1.455079,0.847656 0.754746,0.156145 2.01458,0.11717 3.751953,0.002 1.737372,-0.115216 3.902821,-0.327999 6.253906,-0.595704 4.597654,-0.523509 9.86269,-1.256555 14.00586,-1.880859 -0.17325,0.24023 -0.33283,0.478804 -0.69336,0.849609 -1.0195,1.04857 -2.480953,2.313259 -3.164063,3.033204 -0.437441,0.461026 -0.680577,0.921955 -0.753906,1.367187 -0.07333,0.445233 0.03465,0.850811 0.201172,1.154297 0.333042,0.606973 0.886719,0.896484 0.886719,0.896484 l 0.300781,0.166016 0.273438,-0.208984 c 0,0 4.742259,-3.601568 6.714839,-6.03711 0.5991,-0.739704 1.00757,-1.81291 1.38868,-2.697265 0.19055,-0.442178 0.37287,-0.835876 0.52343,-1.080079 0.0549,-0.08906 0.0914,-0.127336 0.12696,-0.167968 0.0217,0.01232 0.0298,0.0038 0.10742,0.101562 0.11605,0.146175 0.25035,0.396512 0.36523,0.691406 0.22978,0.58979 0.38963,1.359479 0.42578,1.88086 0.0495,0.71356 -0.393,1.885114 -0.76171,2.949219 -0.18436,0.532052 -0.34807,1.039059 -0.38282,1.535156 -0.0174,0.248048 -0.002,0.500771 0.0918,0.748047 0.0941,0.247276 0.28281,0.480091 0.5293,0.623047 0.28634,0.16607 0.64185,0.19233 0.92968,0.105468 0.28784,-0.08686 0.52008,-0.254492 0.72852,-0.451172 0.41688,-0.393359 0.75913,-0.928054 1.0625,-1.466796 0.0852,-0.151225 0.12995,-0.263676 0.20703,-0.41211 0.0381,0.594795 0.0965,1.12652 0.14258,1.66211 0.0469,0.545639 0.0721,0.974726 0.2832,1.373046 0.0528,0.09958 0.12486,0.20787 0.25196,0.300782 0.12709,0.09291 0.32529,0.149628 0.49609,0.126953 0.34159,-0.04535 0.50052,-0.243582 0.66016,-0.449219 0.11203,-0.144321 0.21918,-0.199936 0.39062,-0.246094 0.17144,-0.04616 0.4016,-0.05915 0.66602,-0.07422 0.26441,-0.01507 0.5647,-0.02926 0.88281,-0.154297 0.31811,-0.125039 0.63532,-0.401497 0.80078,-0.791016 1.36897,-3.222733 1.25363,-6.581759 0.70703,-9.419922 -0.0216,-0.112328 -0.0419,-0.225132 -0.15625,-0.371094 -0.11431,-0.145961 -0.43541,-0.266242 -0.63281,-0.210937 -0.19741,0.0553 -0.2764,0.149395 -0.3457,0.224609 -0.0693,0.07521 -0.12137,0.149091 -0.17383,0.230469 -0.20986,0.325512 -0.41689,0.775131 -0.64063,1.240234 -0.18498,0.38454 -0.36766,0.725808 -0.5332,1.00586 -0.0607,-0.189474 -0.1708,-0.314233 -0.16016,-0.597656 0.0192,-0.511525 0.16454,-1.135777 0.34571,-1.742188 0.18116,-0.60641 0.39555,-1.194008 0.54687,-1.679687 0.0757,-0.24284 0.13709,-0.457608 0.16797,-0.666016 0.0154,-0.104204 0.025,-0.207084 0.0117,-0.330078 -0.0133,-0.122994 -0.053,-0.289578 -0.19922,-0.435547 -0.16196,-0.16171 -0.39233,-0.265494 -0.60937,-0.279297 -0.21705,-0.0138 -0.40796,0.04294 -0.57032,0.119141 -0.32471,0.152405 -0.57732,0.389031 -0.80664,0.630859 -0.45864,0.483657 -0.80273,1.029297 -0.80273,1.029297 l -0.0117,0.01758 -0.01,0.02148 c 0,0 -0.53135,1.442458 -1.10937,3.40625 -0.003,-0.0056 -0.003,-0.0061 -0.006,-0.01172 -0.13609,-0.299747 -0.26669,-0.657163 -0.35156,-0.964844 -0.0849,-0.307681 -0.10175,-0.600392 -0.10157,-0.601563 0.2844,-1.822896 1.0939,-2.906091 1.84961,-3.882812 0.37786,-0.48836 0.74692,-0.945188 1.00977,-1.46875 0.26285,-0.523562 0.40346,-1.1363 0.27734,-1.802734 -0.0484,-0.255942 -0.16075,-0.545895 -0.46289,-0.69336 -0.30214,-0.147464 -0.59094,-0.04996 -0.78125,0.04883 -0.38062,0.19758 -0.67998,0.512288 -1.02734,0.84375 -0.34736,0.331463 -0.71442,0.677117 -1.03516,0.894532 -0.32074,0.217414 -0.54303,0.260442 -0.63476,0.232421 -0.47911,-0.146344 -0.79194,-0.51425 -1.02149,-1.054687 -0.22955,-0.540437 -0.3361,-1.224851 -0.36719,-1.814453 -0.005,-0.08983 0.0496,-0.259815 0.21485,-0.486328 0.16527,-0.226513 0.4188,-0.485672 0.67578,-0.757813 0.25698,-0.272141 0.52009,-0.552444 0.71094,-0.892578 0.19085,-0.340133 0.29924,-0.82234 0.0879,-1.25 -0.30359,-0.614309 -0.82854,-1.032946 -1.42188,-1.277344 -0.59334,-0.244397 -1.25961,-0.336583 -1.94922,-0.351562 -1.3792,-0.02996 -2.86828,0.252571 -4.02148,0.476562 -0.78856,0.153166 -1.28532,0.628266 -1.63477,1.003907 -0.34944,0.37564 -0.56601,0.620093 -0.86132,0.697265 -0.037,0.0097 -0.56988,-0.08825 -1.185551,-0.43164 -0.615671,-0.343389 -1.345991,-0.852963 -2.048828,-1.378907 -0.702838,-0.525944 -1.380316,-1.067414 -1.914063,-1.482422 -0.266873,-0.207503 -0.495959,-0.383443 -0.685547,-0.515625 -0.09479,-0.06609 -0.178657,-0.120567 -0.263672,-0.167968 -0.08501,-0.0474 -0.101693,-0.09747 -0.378443,-0.09718 z"
       id="path51"
       sodipodi:nodetypes="sssssssssssscssssccsssssssscsccscsssscccsssccscssscscscsssscccssssssssscsssscccssssssssssssccccscscsccccscsscscscsccccsssssssscscsssscccssscssssscssscccssssssssccsssscssccssssscccccccsscsssssscsssssssscssssscsc" /></g></svg>
